<svg width="150" height="149" viewBox="0 0 150 149" fill="none" xmlns="http://www.w3.org/2000/svg">
<path d="M69.8883 0.122168C88.6316 -0.83879 105.333 3.83606 120.357 15.326C136.055 27.3766 146.323 45.1747 148.896 64.8008C151.51 84.5459 146.161 104.52 134.029 120.314C122.12 135.824 104.566 145.996 85.1899 148.612C85.5016 146.21 85.3672 141.337 85.3641 138.776L85.358 120.12L85.3733 90.3963C85.3733 88.2616 85.4039 86.0758 85.3733 83.9463C85.2602 76.335 86.3116 72.0977 79.2691 67.7066C72.9419 65.4841 65.2065 68.0469 64.5044 75.4053C63.7561 83.2461 64.1412 91.9122 64.1437 99.8496L64.1498 148.689C48.4194 145.756 37.0609 141.219 24.8365 130.446C-5.70484 103.53 -8.52674 55.0564 18.8595 24.7949C31.9181 10.1185 50.2775 1.2415 69.8883 0.122168ZM51.0399 131.593C51.2046 127.225 51.3119 120.674 51.0649 116.28C39.2706 108.886 31.3536 99.5543 28.1893 85.6383C25.2794 73.0287 27.5074 59.7792 34.3812 48.8158C41.1749 38.1829 51.9183 30.69 64.2418 27.9897C68.736 27.0244 73.3423 26.7009 77.9273 27.0287C104.752 28.6268 124.043 51.5018 122.426 78.1062C121.573 90.5645 115.86 102.188 106.516 110.471C103.701 112.951 101.246 114.357 98.4129 116.486L98.3273 131.587C110.841 127.65 123.563 114.61 129.591 103.069C137.131 88.5783 138.617 71.6859 133.717 56.1014C128.677 40.3155 117.566 27.1846 102.83 19.607C92.6114 14.3491 82.9371 12.4951 71.542 12.9583C15.6171 17.103 -7.46609 83.7387 34.3109 121.386C38.6543 125.3 45.53 129.63 51.0399 131.593ZM51.1404 100.184L51.1172 85.7327C51.1111 79.0345 50.5401 72.7162 53.7095 66.5402C57.9182 58.3386 65.9141 53.8441 75.0418 53.8282C75.6807 53.8267 76.3164 53.8652 76.9522 53.9432C83.7899 54.7528 88.8823 57.3143 93.3053 62.7355C101.087 72.272 97.5968 87.8051 98.4374 100.059C105.156 93.8747 109.148 85.2821 109.548 76.1599C109.973 66.9557 106.699 57.9634 100.461 51.1841C94.1795 44.2202 85.3397 40.1079 75.968 39.7908C74.8095 39.7446 73.6541 39.7911 72.4987 39.8547C51.5005 42.1964 37.8578 58.5339 40.2936 79.6414C41.1547 87.1031 45.4645 95.2466 51.1404 100.184Z" fill="#1245A8"/>
</svg>
